<svg width="776" height="798" viewBox="0 0 776 798" fill="none" xmlns="http://www.w3.org/2000/svg">
<path d="M0 164.237L0 642.458L104.499 582.559V343.932L224.479 413.492V665.644L388 798L555.392 665.644V413.492L674.404 343.932V582.559L776 642.458V164.237L448.958 355.525V617.339L388 665.644L326.075 617.339V355.525L0 164.237Z" fill="white" fill-opacity="0.52"/>
<path d="M113.207 0L14.5137 57.9661L388 278.237L763.421 58.9322L663.761 0L388 159.407L113.207 0Z" fill="white" fill-opacity="0.52"/>
<path d="M0 164.237L0 642.458L104.499 582.559V343.932L224.479 413.492V665.644L388 798L555.392 665.644V413.492L674.404 343.932V582.559L776 642.458V164.237L448.958 355.525V617.339L388 665.644L326.075 617.339V355.525L0 164.237Z" stroke="black"/>
<path d="M113.207 0L14.5137 57.9661L388 278.237L763.421 58.9322L663.761 0L388 159.407L113.207 0Z" stroke="black"/>
</svg>
